<?xml version="1.0" encoding="utf-8"?>
<!-- Generator: Adobe Illustrator 23.0.0, SVG Export Plug-In . SVG Version: 6.00 Build 0)  -->
<svg version="1.1" id="Capa_1" xmlns="http://www.w3.org/2000/svg" xmlns:xlink="http://www.w3.org/1999/xlink" x="0px" y="0px"
	 viewBox="0 0 221 211" style="enable-background:new 0 0 221 211;" xml:space="preserve">
<style type="text/css">
	.st0{fill:#FFFFFF;}
</style>
<g>
	<path class="st0" d="M112.4,71.4v-7.7c0-1.1-0.9-1.9-1.9-1.9c-1.1,0-1.9,0.9-1.9,1.9v7.7c0,1.1,0.9,1.9,1.9,1.9
		S112.4,72.5,112.4,71.4z"/>
	<path class="st0" d="M110.5,151.9c1.1,0,1.9-0.9,1.9-1.9v-7.7c0-1.1-0.9-1.9-1.9-1.9c-1.1,0-1.9,0.9-1.9,1.9v7.7
		C108.6,151,109.4,151.9,110.5,151.9z"/>
	<path class="st0" d="M155.6,106.8c0-1.1-0.9-1.9-1.9-1.9h-7.7c-1.1,0-1.9,0.9-1.9,1.9c0,1.1,0.9,1.9,1.9,1.9h7.7
		C154.7,108.8,155.6,107.9,155.6,106.8z"/>
	<path class="st0" d="M77,106.8c0-1.1-0.9-1.9-1.9-1.9h-7.7c-1.1,0-1.9,0.9-1.9,1.9c0,1.1,0.9,1.9,1.9,1.9h7.7
		C76.2,108.8,77,107.9,77,106.8z"/>
	<path class="st0" d="M90.4,76c0.4,0.6,1,1,1.7,1c0.3,0,0.7-0.1,1-0.3c0.9-0.5,1.2-1.7,0.7-2.6l-2-3.5c-0.5-0.9-1.7-1.2-2.6-0.7
		c-0.9,0.5-1.2,1.7-0.7,2.6L90.4,76z"/>
	<path class="st0" d="M127.9,137c-0.9,0.5-1.2,1.7-0.7,2.6l2,3.5c0.4,0.6,1,1,1.7,1c0.3,0,0.7-0.1,1-0.3c0.9-0.5,1.2-1.7,0.7-2.6
		l-2-3.5C130,136.8,128.9,136.5,127.9,137L127.9,137z"/>
	<path class="st0" d="M79.6,86.8l-3.5-2c-0.9-0.5-2.1-0.2-2.6,0.7c-0.5,0.9-0.2,2.1,0.7,2.6l3.5,2c0.3,0.2,0.6,0.3,1,0.3
		c0.7,0,1.3-0.3,1.7-1C80.8,88.5,80.5,87.3,79.6,86.8L79.6,86.8z"/>
	<path class="st0" d="M141.4,126.9l3.5,2c0.3,0.2,0.6,0.3,1,0.3c0.7,0,1.3-0.3,1.7-1c0.5-0.9,0.2-2.1-0.7-2.6l-3.5-2
		c-0.9-0.5-2.1-0.2-2.6,0.7C140.2,125.2,140.5,126.4,141.4,126.9L141.4,126.9z"/>
	<path class="st0" d="M75.1,129.2c0.3,0,0.7-0.1,1-0.3l3.5-2c0.9-0.5,1.2-1.7,0.7-2.6c-0.5-0.9-1.7-1.2-2.6-0.7l-3.5,2
		c-0.9,0.5-1.2,1.7-0.7,2.6C73.8,128.9,74.4,129.2,75.1,129.2z"/>
	<path class="st0" d="M142.4,90.4c0.3,0,0.7-0.1,1-0.3l3.5-2c0.9-0.5,1.2-1.7,0.7-2.6c-0.5-0.9-1.7-1.2-2.6-0.7l-3.5,2
		c-0.9,0.5-1.2,1.7-0.7,2.6C141,90,141.7,90.4,142.4,90.4L142.4,90.4z"/>
	<path class="st0" d="M89.1,143.9c0.3,0.2,0.6,0.3,1,0.3c0.7,0,1.3-0.3,1.7-1l2-3.5c0.5-0.9,0.2-2.1-0.7-2.6
		c-0.9-0.5-2.1-0.2-2.6,0.7l-2,3.5C87.8,142.2,88.2,143.4,89.1,143.9z"/>
	<path class="st0" d="M110.1,119.7c0-1.2-0.8-2.2-1.7-2.2H94.2v-1.8c0-5.6,15.7-9,15.7-19.4c0-5.8-4.7-9.6-10.4-9.6
		c-5.3,0-9.9,3.4-9.9,8.6c0,2.2,1,2.9,2.3,2.9c1.7,0,2.7-1,2.7-1.9c0-3.3,2.2-4.8,4.9-4.8c3.7,0,5.2,2.7,5.2,5.1
		c0,7.5-15.8,11.4-15.8,19.2v4.7c0,1,1.3,1.7,2.3,1.7h17.2C109.3,122.1,110.1,121,110.1,119.7L110.1,119.7z"/>
	<path class="st0" d="M131.5,109.3h-2.4v-6.7c0-1.2-1.3-1.7-2.6-1.7c-1.3,0-2.6,0.5-2.6,1.7v6.7h-7.1l10-19.9
		c0.1-0.3,0.2-0.5,0.2-0.8c0-1.2-1.6-2-2.6-2c-0.8,0-1.7,0.4-2.2,1.4l-11.7,23.1c-0.2,0.3-0.3,0.7-0.3,1.1c0,1.2,0.8,1.9,1.8,1.9
		H124v6.2c0,1.1,1.3,1.7,2.6,1.7c1.3,0,2.6-0.6,2.6-1.7v-6.2h2.4c0.9,0,1.7-1.2,1.7-2.4C133.3,110.5,132.7,109.3,131.5,109.3
		L131.5,109.3z"/>
	<path class="st0" d="M157.3,62.1l-3.1-15.8c-0.5-2.3-1.8-4.3-3.8-5.6c-2-1.3-4.4-1.7-6.7-1.1c-2.2,0.6-4.1,2-5.3,3.9
		c-0.8,1.3-1.2,2.8-1.2,4.3C129,44,119.9,42,110.5,42c-17.3,0-33.6,6.7-45.8,19c-12.2,12.2-19,28.5-19,45.8c0,8.6,1.7,17,5,25
		c0.4,1,1.5,1.5,2.5,1c1-0.4,1.5-1.5,1-2.5c-3.1-7.4-4.7-15.3-4.7-23.5c0-16.3,6.3-31.6,17.8-43.1s26.8-17.8,43.1-17.8
		c9.8,0,19.2,2.3,27.7,6.6l1.9,7.4l-9.7,0.6c-6.1-2.6-12.8-4.1-19.9-4.1c-27.8,0-50.4,22.6-50.4,50.4c0,27.8,22.6,50.4,50.4,50.4
		c21.6,0,40.8-13.7,47.7-34.2l0.1-0.2c0.3-1-0.2-2.1-1.2-2.5c-1-0.3-2.1,0.2-2.5,1.2l-0.1,0.2c-6.4,18.9-24.1,31.5-44,31.5
		c-25.6,0-46.5-20.9-46.5-46.5c0-25.6,20.9-46.5,46.5-46.5c5,0,9.8,0.8,14.4,2.3c-0.3,0.3-0.6,0.6-0.9,0.9c-1.5,1.7-2.3,3.9-2.1,6.2
		c0.2,2.4,1.3,4.5,3.1,6c1.6,1.3,3.4,2,5.4,2c0.4,0,0.7,0,1.1-0.1l1.8-0.2c1.1-0.1,1.8-1.1,1.7-2.2c-0.1-1.1-1.1-1.8-2.2-1.7
		l-1.8,0.2c-1.3,0.2-2.6-0.2-3.6-1c-1-0.8-1.6-2-1.7-3.3c-0.1-1.3,0.3-2.5,1.1-3.4c0.8-0.9,2-1.5,3.2-1.6l10.3-0.7
		c1.1-0.1,2.2-0.6,2.8-1.6c0.7-0.9,0.9-2.1,0.6-3.2l-2.6-10c-0.3-1.2-0.1-2.5,0.5-3.6c0.6-1.1,1.7-1.8,2.9-2.2
		c1.3-0.3,2.6-0.1,3.7,0.6c1.1,0.7,1.8,1.8,2.1,3.1l4.1,20.7c0.2,0.8,0,1.6-0.5,2.3c-0.5,0.7-1.2,1.1-2,1.2l-10.2,1.3
		c-1.1,0.1-1.8,1.1-1.7,2.2c0.1,1.1,1.1,1.8,2.2,1.7l3-0.4c7.3,8.2,11.8,19,11.8,30.9c0,2.2-0.2,4.3-0.4,6.5c-0.1,1.1,0.6,2,1.7,2.2
		c1.1,0.1,2-0.6,2.2-1.7c0.3-2.3,0.5-4.7,0.5-7c0-11.9-4.1-22.8-11.1-31.5l2.6-0.3c1.9-0.2,3.6-1.2,4.7-2.8c0.7-0.9,1.1-2,1.2-3.2
		c8.5,10.7,13.1,23.8,13.1,37.7c0,16.3-6.3,31.6-17.8,43.1c-11.5,11.5-26.8,17.8-43.1,17.8c-10.7,0-21.3-2.8-30.6-8.2
		c-9-5.2-16.5-12.7-21.8-21.6c-0.5-0.9-1.7-1.2-2.7-0.7c-0.9,0.5-1.2,1.7-0.7,2.7c5.6,9.5,13.7,17.4,23.2,22.9
		c9.8,5.7,21.1,8.7,32.5,8.7c17.3,0,33.6-6.7,45.8-19c12.2-12.2,19-28.5,19-45.8C175.3,90,168.9,74.2,157.3,62.1L157.3,62.1z"/>
</g>
</svg>
