<?xml version="1.0" encoding="utf-8"?>
<!-- Generator: Adobe Illustrator 23.0.0, SVG Export Plug-In . SVG Version: 6.00 Build 0)  -->
<svg version="1.1" id="Layer_1" xmlns="http://www.w3.org/2000/svg" xmlns:xlink="http://www.w3.org/1999/xlink" x="0px" y="0px"
	 viewBox="0 0 221 211" style="enable-background:new 0 0 221 211;" xml:space="preserve">
<style type="text/css">
	.st0{fill:#FFFFFF;}
</style>
<g>
	<path class="st0" d="M141.1,116.9c-1,0-1.9,0.8-1.9,1.9v21.9c0,1.1-0.9,2-2,2H99.8c-1,0-1.9,0.8-1.9,1.9c0,1,0.8,1.9,1.9,1.9h37.4
		c3.1,0,5.7-2.6,5.7-5.7v-21.9C143,117.8,142.1,116.9,141.1,116.9z"/>
	<g>
		<path class="st0" d="M154.2,83.3c-4.1,4.1-10.8,4.1-14.9,0c-0.7-0.7-1.9-0.7-2.6,0c-0.7,0.7-0.7,1.9,0,2.6
			c2.8,2.8,6.4,4.1,10.1,4.1c3.7,0,7.3-1.4,10.1-4.1c0.7-0.7,0.7-1.9,0-2.6C156.1,82.7,155,82.7,154.2,83.3z"/>
		<path class="st0" d="M157.4,68.2c-3.5,0-6.3,2.8-6.3,6.2c0,1,0.8,1.9,1.9,1.9s1.9-0.8,1.9-1.9c0-1.4,1.2-2.5,2.6-2.5
			c1.4,0,2.6,1.1,2.6,2.5c0,1,0.8,1.9,1.9,1.9c1,0,1.9-0.8,1.9-1.9C163.7,70.9,160.9,68.2,157.4,68.2z"/>
		<path class="st0" d="M138.7,74.4c0,1,0.8,1.9,1.9,1.9c1,0,1.9-0.8,1.9-1.9c0-3.4-2.8-6.2-6.3-6.2s-6.3,2.8-6.3,6.2
			c0,1,0.8,1.9,1.9,1.9c1,0,1.9-0.8,1.9-1.9c0-1.4,1.2-2.5,2.6-2.5C137.5,71.8,138.7,73,138.7,74.4z"/>
		<g>
			<path class="st0" d="M68.7,104.3h53.2c1,0,1.9-0.8,1.9-1.9c0-1-0.8-1.9-1.9-1.9H68.7c-1,0-1.9,0.8-1.9,1.9
				C66.8,103.3,67.6,104.3,68.7,104.3z"/>
			<path class="st0" d="M68.7,115.4h53.2c1,0,1.9-0.8,1.9-1.9c0-1-0.8-1.9-1.9-1.9H68.7c-1,0-1.9,0.8-1.9,1.9
				C66.8,114.5,67.6,115.4,68.7,115.4z"/>
			<path class="st0" d="M68.7,126.7h28.1c1,0,1.9-0.8,1.9-1.9c0-1-0.8-1.9-1.9-1.9H68.7c-1,0-1.9,0.8-1.9,1.9
				C66.8,125.8,67.6,126.7,68.7,126.7z"/>
			<path class="st0" d="M146.8,48.8c-15.3,0-27.7,12.4-27.7,27.7c0,1.3,0.1,2.5,0.3,3.8H53.2c-3.1,0-5.7,2.6-5.7,5.7v54.7
				c0,3.1,2.5,5.7,5.7,5.7h10.7v13.2c0,2.5,1.2,3.3,1.9,3.6c0.2,0.1,0.6,0.2,1.1,0.2c0.8,0,1.8-0.3,2.9-1.4l15.7-15.7H91
				c1,0,1.9-0.8,1.9-1.9s-0.8-1.9-1.9-1.9h-6.3c-0.5,0-1,0.2-1.3,0.5l-15.7,15.8v-14.4c0-1-0.8-1.9-1.9-1.9H53.2c-1.1,0-2-0.9-2-2
				V86c0-1.1,0.9-2,2-2h66.9c2.6,9.3,9.9,16.6,19.2,19.2v6.9c0,1,0.8,1.9,1.9,1.9s1.9-0.8,1.9-1.9V104c1.2,0.2,2.5,0.3,3.8,0.3
				c15.3,0,27.7-12.4,27.7-27.7C174.5,61.3,162.1,48.8,146.8,48.8L146.8,48.8z M146.8,100.5c-13.2,0-24-10.8-24-24s10.8-24,24-24
				s24,10.8,24,24C170.8,89.8,160,100.5,146.8,100.5L146.8,100.5z"/>
			<path class="st0" d="M50.6,73.3H84c1,0,1.9-0.8,1.9-1.9s-0.8-1.9-1.9-1.9H51.2V56h47.9v13.5h-6.2c-1,0-1.9,0.8-1.9,1.9
				s0.8,1.9,1.9,1.9h6.9c1.7,0,3.1-1.4,3.1-3.1V55.3c0-1.7-1.4-3.1-3.1-3.1H50.6c-1.7,0-3.1,1.4-3.1,3.1V70
				C47.5,71.8,48.9,73.3,50.6,73.3z"/>
			<path class="st0" d="M92.6,62.8c0-1-0.8-1.9-1.9-1.9H58c-1,0-1.9,0.8-1.9,1.9c0,1,0.8,1.9,1.9,1.9h32.7
				C91.8,64.7,92.6,63.8,92.6,62.8z"/>
		</g>
	</g>
</g>
</svg>
