<?xml version="1.0" encoding="utf-8"?>
<!-- Generator: Adobe Illustrator 23.0.0, SVG Export Plug-In . SVG Version: 6.00 Build 0)  -->
<svg version="1.1" id="Layer_1" xmlns="http://www.w3.org/2000/svg" xmlns:xlink="http://www.w3.org/1999/xlink" x="0px" y="0px"
	 viewBox="0 0 221 211" style="enable-background:new 0 0 221 211;" xml:space="preserve">
<style type="text/css">
	.st0{fill:#FFFFFF;}
</style>
<g>
	<path class="st0" d="M141.6,117.6c-1,0-1.9,0.8-1.9,1.9v21.9c0,1.1-0.9,2-2,2h-37.4c-1,0-1.9,0.8-1.9,1.9c0,1,0.8,1.9,1.9,1.9h37.4
		c3.1,0,5.7-2.6,5.7-5.7v-21.9C143.5,118.5,142.6,117.6,141.6,117.6z"/>
	<g>
		<path class="st0" d="M154.7,84c-4.1,4.1-10.8,4.1-14.9,0c-0.7-0.7-1.9-0.7-2.6,0c-0.7,0.7-0.7,1.9,0,2.6c2.8,2.8,6.4,4.1,10.1,4.1
			c3.7,0,7.3-1.4,10.1-4.1c0.7-0.7,0.7-1.9,0-2.6C156.6,83.3,155.5,83.3,154.7,84z"/>
		<path class="st0" d="M157.9,68.8c-3.5,0-6.3,2.8-6.3,6.2c0,1,0.8,1.9,1.9,1.9s1.9-0.8,1.9-1.9c0-1.4,1.2-2.5,2.6-2.5
			c1.4,0,2.6,1.1,2.6,2.5c0,1,0.8,1.9,1.9,1.9c1,0,1.9-0.8,1.9-1.9C164.2,71.6,161.4,68.8,157.9,68.8z"/>
		<path class="st0" d="M139.2,75.1c0,1,0.8,1.9,1.9,1.9c1,0,1.9-0.8,1.9-1.9c0-3.4-2.8-6.2-6.3-6.2c-3.5,0-6.3,2.8-6.3,6.2
			c0,1,0.8,1.9,1.9,1.9c1,0,1.9-0.8,1.9-1.9c0-1.4,1.2-2.5,2.6-2.5C138,72.5,139.2,73.7,139.2,75.1z"/>
		<g>
			<path class="st0" d="M69.2,104.9h53.2c1,0,1.9-0.8,1.9-1.9c0-1-0.8-1.9-1.9-1.9H69.2c-1,0-1.9,0.8-1.9,1.9
				C67.3,104,68.1,104.9,69.2,104.9z"/>
			<path class="st0" d="M69.2,116.1h53.2c1,0,1.9-0.8,1.9-1.9c0-1-0.8-1.9-1.9-1.9H69.2c-1,0-1.9,0.8-1.9,1.9
				C67.3,115.2,68.1,116.1,69.2,116.1z"/>
			<path class="st0" d="M69.2,127.3h28.1c1,0,1.9-0.8,1.9-1.9c0-1-0.8-1.9-1.9-1.9H69.2c-1,0-1.9,0.8-1.9,1.9
				C67.3,126.4,68.1,127.3,69.2,127.3z"/>
			<path class="st0" d="M147.3,49.5c-15.3,0-27.7,12.4-27.7,27.7c0,1.3,0.1,2.5,0.3,3.8H53.7c-3.1,0-5.7,2.6-5.7,5.7v54.7
				c0,3.1,2.5,5.7,5.7,5.7h10.7v13.2c0,2.5,1.2,3.3,1.9,3.6c0.2,0.1,0.6,0.2,1.1,0.2c0.8,0,1.8-0.3,2.9-1.4l15.7-15.7h5.5
				c1,0,1.9-0.8,1.9-1.9s-0.8-1.9-1.9-1.9h-6.3c-0.5,0-1,0.2-1.3,0.5l-15.7,15.8v-14.4c0-1-0.8-1.9-1.9-1.9H53.7c-1.1,0-2-0.9-2-2
				V86.7c0-1.1,0.9-2,2-2h66.9c2.6,9.3,9.9,16.6,19.2,19.2v6.9c0,1,0.8,1.9,1.9,1.9s1.9-0.8,1.9-1.9v-6.1c1.2,0.2,2.5,0.3,3.8,0.3
				c15.3,0,27.7-12.4,27.7-27.7C175,61.9,162.6,49.5,147.3,49.5L147.3,49.5z M147.3,101.2c-13.2,0-24-10.8-24-24
				c0-13.2,10.8-24,24-24c13.2,0,24,10.8,24,24C171.3,90.5,160.5,101.2,147.3,101.2L147.3,101.2z"/>
			<path class="st0" d="M51.1,73.9h33.4c1,0,1.9-0.8,1.9-1.9s-0.8-1.9-1.9-1.9H51.7V56.7h47.9v13.5h-6.2c-1,0-1.9,0.8-1.9,1.9
				s0.8,1.9,1.9,1.9h6.9c1.7,0,3.1-1.4,3.1-3.1V56c0-1.7-1.4-3.1-3.1-3.1H51.1c-1.7,0-3.1,1.4-3.1,3.1v14.7
				C48,72.5,49.4,73.9,51.1,73.9z"/>
			<path class="st0" d="M93.1,63.4c0-1-0.8-1.9-1.9-1.9H58.5c-1,0-1.9,0.8-1.9,1.9c0,1,0.8,1.9,1.9,1.9h32.7
				C92.3,65.3,93.1,64.4,93.1,63.4z"/>
		</g>
	</g>
</g>
</svg>
