<?xml version="1.0" encoding="utf-8"?>
<!-- Generator: Adobe Illustrator 23.0.0, SVG Export Plug-In . SVG Version: 6.00 Build 0)  -->
<svg version="1.1" id="Layer_1" xmlns="http://www.w3.org/2000/svg" xmlns:xlink="http://www.w3.org/1999/xlink" x="0px" y="0px"
	 viewBox="0 0 221 211" style="enable-background:new 0 0 221 211;" xml:space="preserve">
<style type="text/css">
	.st0{fill:#FFFFFF;}
</style>
<g>
	<path class="st0" d="M136.2,74.4c0-0.8-0.8-1.5-1.4-1.5c-0.1,0-0.3,0-0.4,0.1l-5.3,3.4c-0.5,0.3-0.6,0.8-0.6,1.2s0.2,0.8,0.6,1.2
		l5.3,3.4c0.1,0.1,0.2,0.1,0.4,0.1c0.6,0,1.4-0.7,1.4-1.5c0-0.4-0.1-0.7-0.4-0.8l-3.6-2.4l3.6-2.4C136.1,75.1,136.2,74.8,136.2,74.4
		z"/>
	<path class="st0" d="M146.6,67.4c-0.4,0-0.7,0.2-0.9,0.5l-7.3,14.9c-0.1,0.1-0.1,0.3-0.1,0.4c0,0.5,0.5,1.1,1.2,1.1
		c0.4,0,0.8-0.2,0.9-0.5l7.3-14.9c0.1-0.1,0.1-0.3,0.1-0.4C147.8,67.8,147.2,67.4,146.6,67.4z"/>
	<path class="st0" d="M157.1,76.5l-5.3-3.4c-0.1-0.1-0.2-0.1-0.4-0.1c-0.6,0-1.4,0.7-1.4,1.5c0,0.4,0.1,0.7,0.4,0.8l3.6,2.4
		l-3.6,2.4c-0.2,0.1-0.4,0.5-0.4,0.8c0,0.8,0.8,1.5,1.4,1.5c0.1,0,0.3,0,0.4-0.1l5.3-3.4c0.5-0.3,0.6-0.8,0.6-1.2
		C157.7,77.3,157.6,76.8,157.1,76.5z"/>
	<path class="st0" d="M159.7,56.6h-36.1c-1.9-4.9-6.6-8.3-12.1-8.3H87.3c-7.1,0-13,5.8-13,13V76c-1.4,1.2-2.1,3.2-1.8,5.1l1,5.2
		c0.3,1.8,1.3,2.7,2,3.2c0.8,0.5,1.7,0.7,2.6,0.7v0.9c0,4.7,2.8,9.9,7.6,14.3c0.9,0.8,1.8,1.6,2.8,2.3v2.8c0,0.9-0.6,1.6-1.5,1.7
		h-0.1c0,0-2.9,0.8-6.7,1.8H68c-1.4,0-2.7,0.6-3.7,1.6c-0.9,1-1.4,2.4-1.3,3.8v0.5c-5.5,2.8-9,7.7-9.3,13.3c0,0,0,0,0,0.1l-0.4,23.1
		c0,1.7,0.6,3.3,1.8,4.5s2.8,1.9,4.5,1.9h79.5c1.7,0,3.3-0.7,4.5-1.9s1.8-2.8,1.8-4.5l-0.4-23.1c0,0,0,0,0-0.1
		c-0.3-5.8-4-10.8-9.8-13.5c-0.1,0-0.2-0.1-0.3-0.2v-0.1c0.1-1.4-0.4-2.7-1.3-3.8c-0.9-1-2.3-1.6-3.7-1.6h-11.5
		c-3.8-1.1-6.6-1.8-6.7-1.8h-0.1c-0.8-0.2-1.5-0.9-1.5-1.7v-2.8c1-0.7,1.9-1.4,2.8-2.3c3.1-2.8,5.3-5.9,6.5-9h10.9l-1.9,7.7
		c-0.3,1.3,0.2,2.6,1.3,3.3c0.5,0.3,1.1,0.5,1.7,0.5c0.7,0,1.3-0.2,1.9-0.6l14.1-10.8h12.2c4.4,0,8-3.6,8-8V64.6
		C167.7,60.2,164.1,56.6,159.7,56.6z M120.6,78.8c0.6-0.2,1.2-0.3,1.6-0.3c0.5,0.5,0.8,1.2,0.6,2l-0.9,5.2c-0.1,0.7-0.4,0.9-0.5,1
		c-0.2,0.1-0.5,0.2-0.8,0.2L120.6,78.8z M77.7,61.2c0-5.3,4.3-9.6,9.6-9.6h24.2c5.3,0,9.6,4.3,9.6,9.6v14c-0.8,0.1-1.9,0.4-2.9,1V66
		c0-3.7-3-6.7-6.7-6.7H107c-1.6,0-3.1,0.5-4.3,1.5l-0.4,0.4c-0.8,0.7-1.8,1-2.9,1c-1,0-2.1-0.4-2.9-1L96,60.9
		c-1.2-1-2.7-1.5-4.3-1.5h-4.5c-3.7,0-6.7,3-6.7,6.7v10.2c-1-0.5-2-0.8-2.9-1L77.7,61.2L77.7,61.2z M77.3,86.7
		c-0.1-0.1-0.4-0.2-0.5-0.9l-0.9-5.2c-0.1-0.8,0.1-1.5,0.6-2c0.4,0,1,0.1,1.6,0.3v8C77.8,86.8,77.5,86.8,77.3,86.7z M62.5,158.1
		c0,0.4,0.1,0.8,0.2,1.2h-3c-0.8,0-1.5-0.3-2.1-0.9c-0.6-0.6-0.9-1.3-0.8-2.1l0.4-23c0.2-4,2.5-7.5,6.2-9.8l2,28.7
		c0,0.5,0.2,1,0.3,1.5C63.8,154.4,62.5,156.1,62.5,158.1z M132.6,152.3l2.1-29.2c4.2,2.3,6.7,6,7,10.3l0.4,23c0,0.8-0.3,1.5-0.8,2.1
		c-0.6,0.6-1.3,0.9-2.1,0.9h-3c0.1-0.4,0.2-0.8,0.2-1.2c0-2.3-1.7-4.2-4-4.5C132.4,153.2,132.5,152.8,132.6,152.3z M132.9,158.1
		c0,0.7-0.5,1.2-1.2,1.2H67c-0.7,0-1.2-0.5-1.2-1.2s0.5-1.2,1.2-1.2h64.7C132.4,156.9,132.9,157.5,132.9,158.1z M131.1,117.9
		c0.3,0.3,0.5,0.8,0.4,1.2l-2.3,32.9c-0.1,0.9-0.8,1.5-1.6,1.5H70.3c-0.9,0-1.6-0.7-1.6-1.5l-2.3-32.9c0-0.5,0.1-0.9,0.4-1.2
		c0.3-0.3,0.7-0.5,1.2-0.5h62C130.4,117.4,130.8,117.6,131.1,117.9z M108.4,114.1h-18c0.9-0.9,1.5-2.2,1.5-3.6v-0.7
		c2.6,1.4,5.3,2.1,7.5,2.1c2.3,0,4.9-0.8,7.5-2.1v0.7C106.9,111.9,107.4,113.1,108.4,114.1z M110.8,102.9c-3.7,3.4-8.2,5.6-11.4,5.6
		c-3.2,0-7.7-2.2-11.4-5.6c-4.1-3.7-6.5-8-6.5-11.8V80.5c0,0,0,0,0.1,0c0.3,0,0.6-0.1,0.9-0.2c0.9-0.4,1.4-1.2,1.4-2.2V66
		c0-1.8,1.5-3.3,3.3-3.3h4.5c0.8,0,1.6,0.3,2.2,0.8l0.4,0.4c1.4,1.2,3.2,1.8,5,1.8s3.6-0.6,5-1.8l0.4-0.4c0.6-0.5,1.4-0.8,2.2-0.8
		h4.5c1.8,0,3.3,1.5,3.3,3.3v12.2c0,0.9,0.6,1.8,1.4,2.2c0.3,0.1,0.6,0.2,1,0.2v10.6C117.2,94.9,114.9,99.2,110.8,102.9z
		 M164.3,88.4c0,2.6-2.1,4.7-4.7,4.7h-12.8c-0.4,0-0.7,0.1-1,0.3L132,104.1l2.2-8.9c0.1-0.5,0-1-0.3-1.4s-0.8-0.6-1.3-0.6h-12.1
		c0.1-0.7,0.1-1.3,0.1-1.9v-0.9c0.8,0,1.8-0.2,2.6-0.7c0.7-0.5,1.7-1.4,2-3.2l0.9-5.2c0.4-2-0.3-3.9-1.8-5.1v-15
		c0-0.4,0-0.9-0.1-1.3h35.3c2.6,0,4.7,2.1,4.7,4.7v23.8H164.3z"/>
	<path class="st0" d="M99.4,143.1c3.5,0,6.3-2.8,6.3-6.3s-2.8-6.3-6.3-6.3s-6.3,2.8-6.3,6.3S95.9,143.1,99.4,143.1z M99.4,133.9
		c1.6,0,2.9,1.3,2.9,2.9s-1.3,2.9-2.9,2.9s-2.9-1.3-2.9-2.9S97.7,133.9,99.4,133.9z"/>
</g>
</svg>
