<?xml version="1.0" encoding="utf-8"?>
<!-- Generator: Adobe Illustrator 23.0.0, SVG Export Plug-In . SVG Version: 6.00 Build 0)  -->
<svg version="1.1" id="Capa_1" xmlns="http://www.w3.org/2000/svg" xmlns:xlink="http://www.w3.org/1999/xlink" x="0px" y="0px"
	 viewBox="0 0 221 211" style="enable-background:new 0 0 221 211;" xml:space="preserve">
<style type="text/css">
	.st0{fill:#FFFFFF;}
</style>
<g>
	<g>
		<path class="st0" d="M75.9,109.3c-3.2,0-5.9,2.6-5.9,5.9c0,3.2,2.6,5.9,5.9,5.9c3.2,0,5.9-2.6,5.9-5.9
			C81.7,111.8,79.1,109.3,75.9,109.3z M75.9,117.1c-1.1,0-2-0.8-2-2c0-1.1,0.8-2,2-2c1.1,0,2,0.8,2,2
			C77.9,116.1,77,117.1,75.9,117.1z"/>
	</g>
</g>
<g>
	<g>
		<path class="st0" d="M128.6,146.3c-0.3-0.8-1-1.4-1.9-1.4h-11.4l-3.6-10.9c-0.3-0.8-1-1.4-1.9-1.4c-0.8,0-1.6,0.5-1.9,1.4
			l-3.6,10.9H93.3c-0.8,0-1.6,0.5-1.9,1.4c-0.3,0.8,0,1.7,0.7,2.1l9.2,6.7L97.8,166c-0.3,0.8,0,1.6,0.7,2.1s1.6,0.5,2.3,0.1l9.2-6.7
			l9.2,6.7c0.8,0.5,1.7,0.5,2.4-0.1c0.6-0.5,0.8-1.3,0.6-2l-3.6-10.9l9.2-6.7C128.6,147.9,128.9,147.1,128.6,146.3z M115.3,152.8
			c-0.7,0.5-0.9,1.4-0.7,2.1l2.1,6.5l-5.6-4.1c-0.7-0.5-1.6-0.5-2.3,0l-5.6,4.1l2.1-6.5c0.3-0.8,0-1.7-0.7-2.1l-5.6-4.1h6.9
			c0.8,0,1.6-0.5,1.9-1.4l2.1-6.5l2.1,6.5c0.3,0.8,1,1.4,1.9,1.4h6.9L115.3,152.8z"/>
	</g>
</g>
<g>
	<g>
		<path class="st0" d="M175.4,146.3c-0.3-0.8-1-1.4-1.9-1.4h-11.4l-3.6-10.9c-0.3-0.8-1-1.4-1.9-1.4s-1.6,0.5-1.9,1.4l-3.6,10.9
			h-11.4c-0.8,0-1.6,0.5-1.9,1.4c-0.3,0.8,0,1.7,0.7,2.1l9.2,6.7l-3.6,10.9c-0.3,0.8,0,1.6,0.7,2.1c0.7,0.5,1.6,0.5,2.3,0.1l9.2-6.7
			l9.2,6.7c0.8,0.5,1.7,0.5,2.4-0.1c0.6-0.5,0.8-1.3,0.6-2l-3.6-10.9l9.2-6.7C175.4,147.9,175.7,147.1,175.4,146.3z M162.1,152.8
			c-0.7,0.5-0.9,1.4-0.7,2.1l2.1,6.5l-5.6-4.1c-0.7-0.5-1.6-0.5-2.3,0l-5.6,4.1l2.1-6.5c0.3-0.8,0-1.7-0.7-2.1l-5.6-4.1h6.9
			c0.8,0,1.6-0.5,1.9-1.4l2.1-6.5l2.1,6.5c0.3,0.8,1,1.4,1.9,1.4h6.9L162.1,152.8z"/>
	</g>
</g>
<g>
	<g>
		<path class="st0" d="M81.9,146.3c-0.3-0.8-1-1.4-1.9-1.4H68.6l-3.5-10.9c-0.3-0.8-1-1.4-1.9-1.4c-0.8,0-1.6,0.5-1.9,1.4L57.8,145
			H46.5c-0.8,0-1.6,0.5-1.9,1.4c-0.3,0.8,0,1.7,0.7,2.1l9.2,6.7L51,166c-0.3,0.8,0,1.7,0.7,2.1c0.7,0.5,1.6,0.5,2.3,0l9.2-6.7
			l9.2,6.7c0.8,0.5,1.7,0.5,2.4-0.1c0.6-0.5,0.8-1.3,0.6-2l-3.5-10.9l9.2-6.7C81.8,147.9,82.2,147.1,81.9,146.3z M68.6,152.8
			c-0.7,0.5-0.9,1.4-0.7,2.1l2.1,6.5l-5.6-4.1c-0.7-0.5-1.6-0.5-2.3,0l-5.6,4.1l2.1-6.5c0.3-0.8,0-1.7-0.7-2.1l-5.6-4.1h6.9
			c0.8,0,1.6-0.5,1.9-1.4l2.1-6.5l2.1,6.5c0.3,0.8,1,1.4,1.9,1.4h6.9L68.6,152.8z"/>
	</g>
</g>
<g>
	<g>
		<path class="st0" d="M160,86.4c2-1.6,3.2-4.1,3.2-6.8c0-4.8-3.9-8.7-8.7-8.7h-30.9c0.9-2.1,2-5.3,2.7-9.8
			c1.4-10.3-0.8-15.8-2.9-18.6c-1.8-2.4-4.2-3.7-7-4.1c-2.4-0.3-4.5,1.6-4.6,3.9c-0.3,3.7-1.7,13.8-3.6,17.6
			c-4.8,9.7-16.4,15.4-19.9,17c-1.3-1.1-2.9-1.7-4.7-1.7H68.1c-3.9,0-7.1,3.2-7.1,7.1v39.1c0,3.9,3.2,7.1,7.1,7.1h15.7
			c2.1,0,4-0.9,5.3-2.4c2,1.3,5.3,2.7,9.8,2.7h50.1c4.8,0,8.7-3.9,8.7-8.7c0-2.2-0.8-4.2-2.2-5.8c2.9-1.4,4.9-4.4,4.9-7.8
			c0-2.2-0.8-4.2-2.2-5.8c2.9-1.4,4.9-4.4,4.9-7.8C163.2,90.4,161.9,88,160,86.4z M83.8,124.9H68.1c-1.8,0-3.3-1.4-3.3-3.3V82.5
			c0-1.8,1.4-3.3,3.3-3.3h15.7c0.9,0,1.8,0.3,2.4,1V123c0,0.3,0,0.4,0.1,0.7C85.6,124.4,84.7,124.9,83.8,124.9z M146.4,88.3h8.1
			c2.7,0,4.8,2.2,4.8,4.8c0,2.7-2.2,4.8-4.8,4.8h-8.1c-1.1,0-2,0.8-2,2c0,1.1,0.8,2,2,2h5.3c2.7,0,4.8,2.2,4.8,4.8
			c0,2.6-2.2,4.8-4.8,4.8h-6.9c-1.1,0-2,0.8-2,2s0.8,2,2,2h4.2c2.7,0,4.8,2.2,4.8,4.8c0,2.7-2.2,4.8-4.8,4.8H98.9
			c-4,0-6.6-1.4-8.1-2.3c0.1-0.4,0.1-0.8,0.1-1.3V82.5c0-0.8-0.1-1.4-0.3-2.1c4.5-2,16-8.1,21.3-18.6c2.6-5.2,3.9-18.5,4-19.1
			c0-0.1,0-0.1,0-0.2c0-0.1,0-0.1,0.1-0.2c0.1-0.1,0.2-0.1,0.2-0.1c1.2,0.2,3,0.8,4.4,2.6c1.7,2.2,3.4,6.7,2.1,15.7
			c-1.1,7.6-3.6,10.9-3.6,10.9c-1,1.3-0.1,3.1,1.5,3.1h34.3c2.7,0,4.8,2.2,4.8,4.8c0,2.7-2.2,4.8-4.8,4.8h-8.1c-1.1,0-2,0.8-2,2
			C144.5,87.5,145.4,88.3,146.4,88.3z"/>
	</g>
</g>
</svg>
