<?xml version="1.0" encoding="utf-8"?>
<!-- Generator: Adobe Illustrator 23.0.0, SVG Export Plug-In . SVG Version: 6.00 Build 0)  -->
<svg version="1.1" id="Capa_1" xmlns="http://www.w3.org/2000/svg" xmlns:xlink="http://www.w3.org/1999/xlink" x="0px" y="0px"
	 viewBox="0 0 934 253" style="enable-background:new 0 0 934 253;" xml:space="preserve">
<style type="text/css">
	.st0{fill:#D60787;}
	.st1{fill-rule:evenodd;clip-rule:evenodd;fill:#D60787;}
</style>
<g id="Capa_x0020_1">
	<g id="_1797591855648">
		<g id="_1757233941856">
			<path class="st0" d="M143.6,161.7c0.3,0,0.9,0.1,1.8,0.3c0.9,0.2,1.6,0.3,2,0.3c2.7,0,5.7-0.9,9.1-2.7c3.3-1.8,6.3-4.2,9-7.1
				l2.9-3.4c0.1-0.1,0.3-0.3,0.8-0.4c0.4-0.2,0.9-0.2,1.1-0.2c0.2,0,0.4,0.1,0.5,0.2c0.1,0.1,0.2,0.5,0.2,1.1c0,0.4,0,0.7,0,0.8
				c0,0.1-0.1,0.2-0.2,0.3l-2.4,2.9c-3.5,3.9-7.1,6.8-10.9,8.7c-3.8,1.9-7.7,2.9-11.8,2.9c-1.3,0-2.3,0-3-0.1
				c-0.8-0.1-1.5-0.1-2.2-0.2c-6.2,5.7-12.1,10.1-17.8,13.1c-5.7,3-10.9,4.6-15.5,4.6c-3.6,0-6.4-1.4-8.6-4.1
				c-2.1-2.8-3.2-6.4-3.2-11c0-6.3,3.5-14.2,10.6-23.6c0.7-0.9,1.1-1.5,1.4-2c3.3-4.6,5.6-8.1,6.9-10.8c1.3-2.6,2-4.7,2-6.4
				c0-0.9-0.2-1.5-0.7-1.9c-0.4-0.4-1.1-0.6-2.2-0.6c-2.3,0-5.5,1.6-9.5,4.8c-4,3.2-9.6,8.7-16.6,16.3c-1.3,1.4-2.9,3.3-4.7,5.5
				c-3,3.5-5,5.2-5.8,5.2c-0.3,0-0.5-0.1-0.7-0.3c-0.2-0.2-0.3-0.4-0.3-0.6c0-0.6,0.3-1.4,1-2.4c0.7-1,2-2.7,4.1-5l7.1-7.7
				c7.4-7.9,12.9-13.2,16.5-15.7c3.6-2.5,7.1-3.7,10.2-3.7c3,0,5.3,1.1,7.1,3.2c1.8,2.2,2.7,4.9,2.7,8.4c0,2.8-0.6,5.7-1.7,8.6
				c-1.1,2.9-3.4,7-7,12.3l-1.5,2.4c-7.4,11.2-11.1,18-11.1,20.3c0,1.9,0.4,3.3,1.4,4.2c0.9,0.9,2.3,1.4,4.2,1.4
				c6.8,0,14.2-3.5,22.1-10.5c7.9-7,13.4-15.4,16.5-25.2c0.9-3.1,1.7-7.5,2.2-13c0.7-8.1,3.1-12.1,7.2-12.1c2,0,3.5,0.6,4.5,1.9
				c1,1.2,1.5,3.1,1.5,5.5c0,3.7-1.7,8.8-5,15.3C154.1,147.9,149.5,154.7,143.6,161.7L143.6,161.7z"/>
			<path id="_1" class="st0" d="M184,157c9.9-2.2,18.4-6.5,25.6-12.8c7.1-6.4,10.7-12.4,10.7-17.9c0-1.2-0.4-2.3-1.1-3.2
				c-0.7-0.9-1.7-1.3-2.8-1.3c-4.8,0-10.5,3.4-17.1,10.2C192.7,138.8,187.6,147.2,184,157L184,157z M171.8,149.6
				c-1.2,1.6-2.2,2.7-3,3.4c-0.8,0.7-1.4,1-1.9,1c-0.3,0-0.6,0-0.8-0.1c-0.2-0.1-0.3-0.4-0.3-0.7c0-0.5,0.8-1.7,2.3-3.6
				c1.5-1.9,3.6-4.4,6.4-7.3c6.8-7.5,13.7-13.2,20.7-17.1c7-4,13.7-6,20-6c3.7,0,6.7,1,8.9,2.9c2.3,1.9,3.4,4.4,3.4,7.4
				c0,6.2-4,12.1-12.2,17.8c-8.1,5.7-19,10.1-32.6,13.2c-0.4,2.7-0.7,4.6-0.9,5.9c-0.2,1.2-0.2,2.3-0.2,3c0,3.3,0.8,5.8,2.3,7.6
				c1.6,1.8,3.7,2.7,6.6,2.7c3.8,0,7.8-1.3,12.1-3.7c4.3-2.5,9.4-6.7,15.3-12.5c2.5-2.4,5.1-5.2,7.9-8.4c2.8-3.2,4.5-4.7,5-4.7
				c0.4,0,0.7,0.1,0.9,0.3c0.3,0.2,0.4,0.5,0.4,0.7c0,0.7-0.7,1.8-2.1,3.5c-1.4,1.7-4.5,5-9.2,9.9c-6.5,6.5-12.2,11.2-17.2,14
				c-4.9,2.8-9.7,4.2-14.2,4.2c-5.5,0-10.1-2.3-13.6-6.8c-3.6-4.5-5.3-10.3-5.3-17.3c0-1.4,0.1-2.9,0.3-4.5
				C171.1,152.9,171.4,151.3,171.8,149.6L171.8,149.6z"/>
			<path id="_2" class="st0" d="M233.1,182.2l28.9-43.4c0.3-0.5,0.8-1.2,1.4-2c3.8-5.6,5.7-9.4,5.7-11.3c0-1-0.2-1.7-0.7-2.2
				c-0.5-0.5-1.3-0.7-2.3-0.7c-2.4,0-5.5,1.5-9.3,4.6c-3.8,3-9.4,8.5-16.8,16.4c-1.5,1.6-3.3,3.7-5.5,6.2c-2.5,3.1-4.2,4.7-5,4.7
				c-0.3,0-0.5-0.1-0.7-0.3c-0.2-0.2-0.3-0.4-0.3-0.6c0-0.6,0.3-1.4,1-2.4c0.7-1,2-2.7,4.1-5l7.1-7.7c7.2-7.7,12.6-12.8,16.3-15.5
				c3.6-2.6,7-4,10.1-4c2.7,0,4.8,0.9,6.3,2.8c1.6,1.9,2.3,4.5,2.3,7.7c0,3.3-0.7,6.9-2.1,10.8c-1.4,3.8-3.6,8.2-6.8,13.2
				c11.3-12.8,20-21.7,26-26.7c6-5.1,10.9-7.6,14.5-7.6c2.6,0,4.6,1,6.1,2.9c1.5,1.9,2.3,4.6,2.3,7.8c0,5.6-3.7,13.4-11,23.4
				c-1.2,1.6-2.2,2.9-2.7,3.8c-4,5.5-6.8,9.6-8.2,12.2c-1.4,2.6-2.1,4.8-2.1,6.5c0,1.3,0.3,2.3,0.9,3c0.6,0.7,1.5,1,2.7,1
				c1.9,0,4.9-1.6,9-4.9c4.1-3.2,9.1-7.9,15-14.1c1.7-1.7,3.7-3.9,6-6.5c2.3-2.6,3.7-3.9,4.2-3.9c0.4,0,0.7,0.1,1,0.4
				c0.3,0.3,0.4,0.5,0.4,0.7c0,1.2-3.2,5-9.7,11.6l-1.3,1.3c-6.2,6.3-11.3,11-15.4,14.1c-4.1,3.1-7.3,4.6-9.5,4.6
				c-3.2,0-5.8-1.4-7.7-4.3c-2-2.9-2.9-6.7-2.9-11.4c0-3.4,0.9-6.9,2.7-10.7c1.8-3.7,5.6-9.3,11.6-16.7c0.8-1,1.9-2.4,3.4-4.2
				c4.3-5.3,6.4-8.8,6.4-10.5c0-0.9-0.2-1.6-0.6-1.9c-0.3-0.4-1-0.6-1.9-0.6c-3.5,0-10.4,5.2-20.6,15.5
				c-10.3,10.3-22.5,24.5-36.6,42.4L233.1,182.2L233.1,182.2z"/>
			<path id="_3" class="st0" d="M348.4,133.1c-4.1,4-8.3,8.6-12.7,13.5c-4.4,5-7,7.5-7.8,7.5c-0.3,0-0.5,0-0.7-0.1
				c-0.1-0.1-0.2-0.3-0.2-0.5c0-1.5,4.3-6.7,13-15.7c8.7-8.9,14.8-16.1,18.6-21.7l9.7-14.5h-10.8l1.9-3.1h10.9l13.6-21.6l14.5-1.1
				L384,98.4h25.6l-1.7,3.1H382l-33.3,53.2c-3.5,5.6-6.2,10.1-7.9,13.5c-1.7,3.4-2.6,5.9-2.6,7.4c0,1.1,0.4,2,1.1,2.9
				c0.7,0.9,1.6,1.3,2.7,1.3c2.7,0,5.9-1.4,9.6-4.1c3.8-2.7,9.2-7.9,16.4-15.3c1.6-1.6,3.4-3.6,5.5-6c2.5-2.7,4-4.1,4.7-4.1
				c0.4,0,0.7,0.1,0.9,0.3c0.3,0.2,0.4,0.5,0.4,0.7c0,0.7-0.6,1.7-1.9,3.3c-1.2,1.5-4,4.5-8.4,9c-7.5,7.6-13.1,12.8-17,15.4
				c-3.8,2.6-7.2,4-10.2,4c-3.6,0-6.5-1.3-8.8-3.8c-2.2-2.5-3.3-5.9-3.3-10.2c0-5.7,5.2-16.2,15.4-31.8
				C346.9,135.4,347.8,134.1,348.4,133.1L348.4,133.1z"/>
			<path class="st0" d="M511.7,196.3v17.2h6.3c3.7,0,6.4-0.7,8.2-2.1c1.8-1.4,2.6-3.6,2.6-6.5c0-2.9-0.9-5.1-2.7-6.5
				c-1.8-1.4-4.5-2.2-8.2-2.2H511.7L511.7,196.3z M511.7,176.6v15.4h2.7c4.4,0,7.5-0.6,9.3-1.8c1.8-1.2,2.7-3.2,2.7-6
				c0-2.6-0.9-4.5-2.6-5.7c-1.7-1.2-4.5-1.8-8.2-1.8L511.7,176.6L511.7,176.6z M507.4,172.2h8.5c5.2,0,8.9,1,11.4,2.9
				c2.4,2,3.6,5,3.6,9.2c0,2.1-0.4,3.9-1.2,5.4c-0.8,1.5-2,2.7-3.7,3.6c2.5,1,4.3,2.5,5.5,4.3c1.2,1.9,1.8,4.1,1.8,6.8
				c0,4.6-1.3,8.1-3.8,10.2c-2.6,2.2-6.6,3.3-12.1,3.3h-10.1V172.2z"/>
			<path id="_1_0" class="st0" d="M542.1,200.6c0,4,1.3,7.3,3.8,10c2.5,2.7,5.7,4,9.4,4c3.7,0,6.8-1.3,9.3-4c2.5-2.7,3.8-6,3.8-10.1
				c0-4.1-1.3-7.4-3.8-10.1c-2.5-2.6-5.8-3.9-9.7-3.9c-3.5,0-6.5,1.3-9.1,4C543.4,193.3,542.1,196.6,542.1,200.6L542.1,200.6z
				 M537.5,200.7c0-5.1,1.7-9.4,5.2-13c3.5-3.6,7.6-5.4,12.3-5.4c5,0,9.3,1.8,12.8,5.3c3.5,3.5,5.3,7.7,5.3,12.6
				c0,5.1-1.7,9.5-5.2,13.2c-3.5,3.6-7.6,5.5-12.6,5.5c-5,0-9.2-1.8-12.7-5.3C539.2,210,537.5,205.7,537.5,200.7L537.5,200.7z"/>
			<path id="_2_1" class="st0" d="M607.5,201c0-3.9-1.3-7.3-3.9-10.1c-2.6-2.8-5.7-4.2-9.2-4.2c-3.6,0-6.8,1.3-9.3,4
				c-2.6,2.6-3.9,5.9-3.9,9.7c0,4,1.3,7.4,3.9,10.2c2.6,2.7,5.8,4.1,9.5,4.1c3.4,0,6.4-1.4,9-4.1C606.2,207.8,607.5,204.6,607.5,201
				L607.5,201z M607.4,188.8v-7.7v-8.9h4.4v45.7h-4.4v-5.2c-1.5,1.9-3.5,3.4-5.8,4.5c-2.3,1.1-4.7,1.6-7.3,1.6
				c-5,0-9.2-1.8-12.6-5.3c-3.4-3.5-5.1-7.8-5.1-12.9c0-5.1,1.7-9.3,5.1-12.8c3.4-3.5,7.6-5.2,12.6-5.2c2.7,0,5.2,0.5,7.4,1.6
				C603.9,185.3,605.8,186.8,607.4,188.8L607.4,188.8z"/>
			<path id="_3_2" class="st0" d="M648,200.4c0-3.7-1.3-6.9-3.9-9.6c-2.6-2.7-5.6-4.1-9-4.1c-3.7,0-6.9,1.4-9.5,4.1
				c-2.6,2.7-3.9,6.1-3.9,10.2c0,3.8,1.3,7.1,3.9,9.7c2.6,2.6,5.7,4,9.4,4c3.5,0,6.6-1.4,9.2-4.2C646.7,207.7,648,204.3,648,200.4
				L648,200.4z M648,212.4c-1.4,2-3.2,3.5-5.6,4.7c-2.4,1.1-4.9,1.7-7.6,1.7c-5.1,0-9.3-1.7-12.7-5.2c-3.4-3.5-5.1-7.7-5.1-12.8
				c0-5.2,1.7-9.5,5.2-13c3.4-3.5,7.7-5.2,12.9-5.2c2.7,0,5.1,0.5,7.3,1.6c2.2,1.1,4.1,2.6,5.5,4.7v-5.5h4.3v34.5H648V212.4z"/>
			<path id="_4" class="st0" d="M657.1,207h4.6v0.1c0,2.2,0.6,3.9,1.9,5.3c1.2,1.4,2.8,2.1,4.6,2.1c1.7,0,3.2-0.5,4.3-1.6
				c1.1-1.1,1.7-2.5,1.7-4.1c0-1.6-0.5-3-1.4-4c-0.9-1-2.6-1.9-4.9-2.8c-3.8-1.4-6.3-2.8-7.5-4.2c-1.2-1.4-1.8-3.3-1.8-5.7
				c0-2.7,1-5,2.9-6.9c2-1.9,4.3-2.8,7.1-2.8c3,0,5.3,0.8,7,2.5c1.7,1.7,2.7,4,2.8,7h-4.8c-0.1-1.6-0.6-2.9-1.5-3.8
				c-0.9-0.9-2.2-1.4-3.8-1.4c-1.4,0-2.6,0.5-3.6,1.5c-1,1-1.4,2.2-1.4,3.6c0,1,0.2,1.9,0.6,2.6c0.4,0.7,1,1.3,2,1.9
				c0.8,0.5,2.1,1,3.7,1.5c1.6,0.5,2.7,0.8,3.2,1.1c2.2,0.9,3.7,2.2,4.8,3.7c1,1.5,1.5,3.5,1.5,5.8c0,3-1,5.4-3.1,7.4
				c-2.1,1.9-4.7,2.9-7.9,2.9c-3.2,0-5.8-1.1-7.8-3.2C658.3,213.5,657.2,210.6,657.1,207L657.1,207z"/>
			<polygon id="_5" class="st0" points="697.9,183.4 703,183.4 713.6,211.4 724.8,183.4 730,183.4 711.3,229.1 706.6,229.1 
				711.2,217.9 			"/>
			<polygon id="_6" class="st0" points="750.9,217.9 750.9,172.2 773.5,172.2 773.5,176.7 755.4,176.7 755.4,192.7 773.5,192.7 
				773.5,197.2 755.4,197.2 755.4,217.9 			"/>
			<path id="_7" class="st0" d="M784.7,179.3h-4.4v-7.1h4.4V179.3z M780.3,217.9v-34.5h4.4v34.5H780.3z"/>
			<path id="_8" class="st0" d="M825.7,202h-31.2c0.3,3.8,1.6,6.8,4.1,9.1c2.5,2.3,5.5,3.5,9.2,3.5c2.6,0,4.9-0.7,7-2
				c2.1-1.4,3.7-3.2,4.8-5.6h5c-1.6,3.8-3.8,6.8-6.7,8.8c-2.9,2-6.2,3.1-10,3.1c-5,0-9.3-1.8-12.7-5.4c-3.5-3.6-5.2-7.9-5.2-12.9
				c0-5.3,1.7-9.6,5.1-13c3.4-3.4,7.7-5.2,13-5.2c5.2,0,9.4,1.8,12.7,5.4c3.3,3.6,4.9,8.2,4.9,13.9V202L825.7,202z M820.8,198.2
				c-0.8-3.8-2.4-6.7-4.6-8.7c-2.2-1.9-5.2-2.9-8.8-2.9c-3.4,0-6.2,1-8.5,3.1c-2.3,2.1-3.7,4.9-4.3,8.4H820.8z"/>
			<path id="_9" class="st0" d="M828.6,207h4.6v0.1c0,2.2,0.6,3.9,1.9,5.3c1.2,1.4,2.8,2.1,4.6,2.1c1.7,0,3.2-0.5,4.3-1.6
				c1.1-1.1,1.7-2.5,1.7-4.1c0-1.6-0.5-3-1.4-4c-0.9-1-2.6-1.9-4.9-2.8c-3.8-1.4-6.3-2.8-7.5-4.2c-1.2-1.4-1.8-3.3-1.8-5.7
				c0-2.7,1-5,2.9-6.9c2-1.9,4.3-2.8,7.1-2.8c3,0,5.3,0.8,7,2.5c1.7,1.7,2.7,4,2.8,7h-4.8c-0.1-1.6-0.6-2.9-1.5-3.8
				c-0.9-0.9-2.2-1.4-3.8-1.4c-1.4,0-2.6,0.5-3.6,1.5c-1,1-1.4,2.2-1.4,3.6c0,1,0.2,1.9,0.6,2.6c0.4,0.7,1,1.3,2,1.9
				c0.8,0.5,2.1,1,3.7,1.5c1.6,0.5,2.7,0.8,3.2,1.1c2.2,0.9,3.7,2.2,4.8,3.7c1,1.5,1.5,3.5,1.5,5.8c0,3-1,5.4-3.1,7.4
				c-2.1,1.9-4.7,2.9-7.9,2.9c-3.2,0-5.8-1.1-7.8-3.2C829.8,213.5,828.7,210.6,828.6,207L828.6,207z"/>
			<polygon id="_10" class="st0" points="858.8,217.9 858.8,187.8 852.3,187.8 852.3,183.4 858.8,183.4 858.8,172.2 863.3,172.2 
				863.3,183.4 869.8,183.4 869.8,187.8 863.3,187.8 863.3,217.9 			"/>
			<path id="_11" class="st0" d="M902.5,200.4c0-3.7-1.3-6.9-3.9-9.6c-2.6-2.7-5.6-4.1-9-4.1c-3.7,0-6.9,1.4-9.5,4.1
				c-2.6,2.7-3.9,6.1-3.9,10.2c0,3.8,1.3,7.1,3.9,9.7c2.6,2.6,5.7,4,9.3,4c3.5,0,6.6-1.4,9.2-4.2
				C901.2,207.7,902.6,204.3,902.5,200.4L902.5,200.4z M902.5,212.4c-1.4,2-3.2,3.5-5.6,4.7c-2.4,1.1-4.9,1.7-7.6,1.7
				c-5.1,0-9.3-1.7-12.7-5.2c-3.4-3.5-5.1-7.7-5.1-12.8c0-5.2,1.7-9.5,5.2-13c3.4-3.5,7.7-5.2,12.9-5.2c2.7,0,5.1,0.5,7.3,1.6
				c2.2,1.1,4.1,2.6,5.5,4.7v-5.5h4.3v34.5h-4.3V212.4z"/>
			<path id="_12" class="st0" d="M911.7,207h4.6v0.1c0,2.2,0.6,3.9,1.9,5.3c1.2,1.4,2.8,2.1,4.6,2.1c1.7,0,3.2-0.5,4.3-1.6
				c1.1-1.1,1.7-2.5,1.7-4.1c0-1.6-0.5-3-1.4-4c-0.9-1-2.6-1.9-4.9-2.8c-3.8-1.4-6.3-2.8-7.5-4.2c-1.2-1.4-1.8-3.3-1.8-5.7
				c0-2.7,1-5,2.9-6.9c2-1.9,4.3-2.8,7.1-2.8c3,0,5.3,0.8,7,2.5c1.7,1.7,2.7,4,2.8,7h-4.8c-0.1-1.6-0.6-2.9-1.5-3.8
				c-0.9-0.9-2.2-1.4-3.8-1.4c-1.4,0-2.6,0.5-3.6,1.5c-1,1-1.4,2.2-1.4,3.6c0,1,0.2,1.9,0.6,2.6c0.4,0.7,1.1,1.3,2,1.9
				c0.8,0.5,2.1,1,3.7,1.5c1.6,0.5,2.7,0.8,3.2,1.1c2.2,0.9,3.7,2.2,4.8,3.7c1,1.5,1.5,3.5,1.5,5.8c0,3-1,5.4-3.1,7.4
				c-2.1,1.9-4.7,2.9-7.9,2.9c-3.2,0-5.8-1.1-7.8-3.2C912.8,213.5,911.8,210.6,911.7,207L911.7,207z"/>
			<path class="st0" d="M100.4,88.5c27.3-4.9,50.7-14.2,70.4-27.9c19.7-13.8,29.6-26.4,29.6-37.8c0-3.7-1.3-6.6-4-8.6
				c-2.7-2-6.5-3-11.5-3c-5.7,0-12.6,1.7-21,5.2c-8.4,3.4-16.8,8.2-25.5,14.2c5,5.4,8.7,9.6,10.8,12.6c2.1,2.9,3.1,5.3,3.1,7.1
				c0,0.4-0.1,0.7-0.2,1c-0.2,0.2-0.3,0.3-0.5,0.3c-1.4,0-3.9-2.2-7.3-6.6c-3.5-4.4-6.7-8.1-9.8-11.1c-10.7,6.5-19,14.6-25.1,24.2
				c-6.1,9.6-9.2,19.4-9.2,29.7L100.4,88.5L100.4,88.5z M82,89.8c-0.7-2.1-1.1-4-1.5-5.8c-0.3-1.8-0.5-3.5-0.5-5
				c0-9.5,3.7-19,11.2-28.5c7.5-9.4,18.3-18.1,32.3-26.1C115.2,18,106.3,13,96.9,9.8c-9.4-3.3-19.1-5-29.1-5c-16.7,0-30.6,4-41.6,12
				c-11.1,8-16.6,18-16.6,29.8c0,11.9,6,22.2,17.9,31c11.9,8.8,26,13.2,42.2,13.2c1.2,0,3.3-0.1,6.2-0.4
				C78.8,90.1,80.8,89.9,82,89.8L82,89.8z M132.8,245.6c-16.6,4.9-89.8,16.4-110-5.4c-8.9-9.6-14.6-21-14.6-36.5
				c0-21.1,8.3-39.8,24.8-55.9c16.5-16.2,39.6-28,69.4-35.7c-3.2-1.5-6-3.3-8.4-5.2c-2.4-2-4.3-4.1-5.9-6.6c-4.4,0.6-8.4,1-12,1.3
				c-3.6,0.3-6.8,0.4-9.7,0.4c-20.1,0-36.1-4.4-48.1-13.2C6.4,80.1,0.4,68.4,0.4,53.8c0-15.4,6.4-28.2,19.1-38.4
				C32.2,5.1,48.3,0,67.8,0c11.1,0,21.7,1.8,31.7,5.4c10.1,3.6,19.7,9,28.7,16.1c10.6-4.7,20.7-8.3,30.2-10.9
				c9.5-2.5,17.8-3.8,25-3.8c7.1,0,12.6,1.4,16.6,4.3c3.9,2.9,5.9,6.8,5.9,11.8c0,11.7-10,25.1-30,39.9
				c-20,14.9-44.8,26.6-74.4,35.1c1.4,4.4,3.6,7.5,6.5,9.3c2.9,1.8,7.4,2.7,13.7,2.7c1,0,2.6-0.1,4.8-0.3c2.2-0.2,3.7-0.3,4.7-0.3
				c2.9,0,5.2,0.5,6.7,1.5c1.6,1,2.4,2.3,2.4,4c0,1.5-0.7,2.8-2.2,3.6c-1.5,0.9-3.5,1.4-6,1.4c-3.1,0-7-0.6-11.7-1.7
				c-4.7-1.1-7.8-1.7-9.4-1.7c-5.3,0-12.2,1.9-20.6,5.7c-8.4,3.7-16.3,8.7-23.6,14.8c-11,9.1-19.5,19.7-25.6,32
				c-6.1,12.3-12.7,25.5-9.1,38.1c4.1,14.5,13.6,26.8,22.8,29c99.6,23.4,230-104.6,401.7-21.2C318.1,178.8,280,202.5,132.8,245.6
				L132.8,245.6z"/>
			<path class="st1" d="M401.8,165.6c7.1,0,13.6,2.9,18.2,7.5c4.7,4.7,7.6,11.1,7.6,18.2c0,7.1-2.9,13.6-7.6,18.2
				c-4.7,4.7-11.1,7.6-18.2,7.6c-7.1,0-13.6-2.9-18.2-7.6c-4.7-4.7-7.6-11.1-7.6-18.2c0-7.1,2.9-13.6,7.6-18.2
				C388.2,168.5,394.6,165.6,401.8,165.6z M416.2,176.9c-3.7-3.7-8.8-6-14.5-6c-5.6,0-10.8,2.3-14.5,6c-3.7,3.7-6,8.8-6,14.4
				c0,5.6,2.3,10.8,6,14.4c3.7,3.7,8.8,6,14.5,6c5.6,0,10.7-2.3,14.4-6c3.7-3.7,6-8.8,6-14.5C422.2,185.7,419.9,180.6,416.2,176.9z"
				/>
			<path class="st1" d="M433.1,165.6c7.1,0,13.6,2.9,18.2,7.5c4.7,4.7,7.5,11.1,7.5,18.2c0,7.1-2.9,13.6-7.5,18.2
				c-4.7,4.7-11.1,7.6-18.2,7.6c-7.1,0-13.6-2.9-18.2-7.6c-4.7-4.7-7.6-11.1-7.6-18.2c0-7.1,2.9-13.6,7.6-18.2
				C419.5,168.5,426,165.6,433.1,165.6z M447.6,176.9c-3.7-3.7-8.8-6-14.5-6c-5.6,0-10.8,2.3-14.4,6c-3.7,3.7-6,8.8-6,14.4
				c0,5.6,2.3,10.8,6,14.4c3.7,3.7,8.8,6,14.4,6c5.6,0,10.8-2.3,14.4-6c3.7-3.7,6-8.8,6-14.5C453.5,185.7,451.3,180.6,447.6,176.9z"
				/>
		</g>
	</g>
</g>
</svg>
